<svg xmlns="http://www.w3.org/2000/svg" width="1104" height="207" fill="none"><path fill="#fff" d="M1030.26 206.58c-13.74 0-26.21-3.024-37.385-9.072q-16.494-9.347-26.117-25.292-9.621-15.945-9.621-35.738 0-19.794 9.621-35.464 9.623-15.67 26.117-24.742 16.491-9.347 37.385-9.347c13.93 0 26.39 3.024 37.39 9.072s19.7 14.387 26.12 25.017c6.41 10.447 9.62 22.268 9.62 35.464s-3.21 25.108-9.62 35.738c-6.42 10.63-15.12 19.061-26.12 25.292-11 6.048-23.46 9.072-37.39 9.072m0-38.212c6.05 0 11.37-1.283 15.95-3.849q6.87-4.123 10.44-11.272c2.57-4.948 3.85-10.538 3.85-16.769 0-6.232-1.28-11.638-3.85-16.22-2.56-4.765-6.13-8.431-10.72-10.997-4.4-2.749-9.62-4.123-15.67-4.123-5.86 0-11.08 1.374-15.67 4.123-4.58 2.566-8.15 6.232-10.72 10.997-2.56 4.765-3.85 10.263-3.85 16.495 0 6.048 1.29 11.546 3.85 16.494 2.57 4.766 6.14 8.523 10.72 11.272 4.59 2.566 9.81 3.849 15.67 3.849M894.253 203.556V69.949h42.061v133.607zM894.257 14.692h42.051V56.35h-42.051zM776.931 203.556V74.976l42.062-4.309v132.889zm42.062-73.401-17.594-13.746q5.223-23.367 17.594-36.288Q831.363 67.2 853.357 67.2q9.622 0 16.77 3.024 7.422 2.75 12.921 8.797l-25.017 31.615q-2.75-3.024-6.873-4.674-4.124-1.649-9.347-1.649-10.448 0-16.77 6.598-6.048 6.323-6.048 19.244M686.097 203.556V19.692l42.061-5v188.864zm-30.241-97.868v-35.74h109.725l-28.73 35.74zM589.876 206.855a91.9 91.9 0 0 1-23.368-3.024q-11.271-3.024-21.168-8.523-9.622-5.773-16.495-13.195l23.918-24.193q6.597 7.149 15.67 11.272 9.072 3.849 19.793 3.849 7.423 0 11.272-2.2 4.124-2.199 4.124-6.048 0-4.948-4.949-7.422-4.674-2.75-12.096-4.674a4896 4896 0 0 1-15.67-4.673 70.2 70.2 0 0 1-15.67-6.873q-7.422-4.4-12.096-12.096-4.674-7.973-4.674-20.069 0-12.921 6.598-22.268 6.598-9.623 18.694-15.12 12.096-5.498 28.316-5.498 17.045 0 31.34 6.048 14.571 5.773 23.643 17.32L623.14 113.66q-6.323-7.423-14.295-10.447-7.698-3.024-15.12-3.024-7.148 0-10.722 2.199-3.573 1.924-3.574 5.773 0 4.124 4.674 6.598 4.673 2.475 12.096 4.399 7.423 1.925 15.67 4.673a72 72 0 0 1 15.67 7.423q7.422 4.674 12.096 12.646 4.674 7.698 4.674 20.343 0 19.52-14.846 31.065-14.57 11.547-39.587 11.547M456.584 206.58q-21.717 0-38.762-8.797-16.77-9.072-26.392-25.017t-9.622-36.013 9.347-35.739q9.623-15.945 25.842-25.017t36.563-9.072q19.794 0 34.914 8.522t23.643 23.643q8.797 15.12 8.797 34.639 0 3.573-.55 7.697-.275 3.849-1.375 9.072l-115.188.275v-28.866l97.319-.275-18.144 12.097q-.275-11.547-3.574-18.969-3.299-7.698-9.897-11.547-6.322-4.123-15.67-4.123-9.897 0-17.319 4.673-7.148 4.4-11.272 12.646-3.848 8.247-3.848 20.069t4.123 20.343q4.4 8.247 12.096 12.921 7.973 4.399 18.694 4.399 9.897 0 17.87-3.299 7.972-3.574 14.02-10.447l23.093 23.093q-9.897 11.546-23.918 17.319t-30.79 5.773M287.943 206.305q-18.42 0-32.99-9.072-14.295-9.072-22.818-24.742-8.247-15.67-8.247-35.738t8.247-35.739q8.523-15.67 22.818-24.742 14.57-9.072 32.99-9.072 13.47 0 24.192 5.223 10.996 5.224 17.869 14.57 6.873 9.073 7.698 20.894v57.731q-.825 11.821-7.698 21.169-6.597 9.072-17.594 14.295t-24.467 5.223m8.522-37.937q13.47 0 21.718-8.798 8.247-9.072 8.247-22.817 0-9.348-3.848-16.495-3.574-7.148-10.447-10.997-6.598-4.123-15.395-4.123t-15.67 4.123q-6.599 3.85-10.722 10.997-3.849 7.147-3.849 16.495 0 9.072 3.849 16.219 3.849 7.149 10.722 11.272t15.395 4.124m28.316 35.188v-36.013l6.323-32.44-6.323-32.439V74.258l36.209-4.309v133.607zM0 203.556V0h19.38l87.836 111.854h-15.67L179.368 0h19.394v203.556H155.6V94.399l7.698 1.925-56.942 63.16H92.13l-56.666-63.16 7.422-1.925v109.157z"/></svg>